#!OML:ASF F:\VICON\USERDATA\INSTALL\rory3\rory3.ASF
:FULLY-SPECIFIED
:DEGREES
848
root -2.49417 14.2964 -33.4916 -313.651 42.5475 25.3352
lowerback -18.4102 -9.97034 -2.76233
upperback -13.9972 -12.3659 -0.507796
thorax -4.65632 -5.96838 -0.79048
lowerneck -8.04991 -1.70907 -2.92504
upperneck 44.2482 -2.89228 3.47643
head 17.9215 -0.991468 1.76257
rclavicle -4.25399e-014 -2.8625e-014
rhumerus -22.0699 -41.5677 8.38996
rradius 18.2051
rwrist 17.2838
rhand -2.16363 4.99899
rfingers 7.12502
rthumb 23.5164 -23.5835
lclavicle -4.25399e-014 -2.8625e-014
lhumerus 57.6511 17.5193 40.9199
lradius 22.9007
lwrist -37.9498
lhand -0.145789 19.2178
lfingers 7.12502
lthumb 25.4507 47.5385
rfemur -110.32 -38.6758 410.632
rtibia 72.9669
rfoot 148.998 146.657
rtoes 24.9583
lfemur -19.3942 -7.60467 -32.4517
ltibia 34.153
lfoot -42.1922 18.7788
ltoes -30.8848
849
root -2.50177 14.3093 -33.5234 -313.723 42.6444 25.4451
lowerback -18.5385 -10.0912 -2.95154
upperback -14.0353 -12.4849 -0.601832
thorax -4.62298 -6.01743 -0.826846
lowerneck -7.74251 -1.61484 -3.06922
upperneck 44.1243 -2.79435 3.68189
head 17.7656 -0.952284 1.89809
rclavicle 1.10027e-013 1.35174e-014
rhumerus -23.1799 -42.4685 9.23626
rradius 17.8166
rwrist 19.3684
rhand -2.0987 5.09886
rfingers 7.12502
rthumb 23.5787 -23.4756
lclavicle 1.10027e-013 1.35174e-014
lhumerus 57.763 16.422 40.3594
lradius 23.1698
lwrist -37.0036
lhand -0.35301 19.9785
lfingers 7.12502
lthumb 25.2522 48.3274
rfemur -110.431 -38.9254 410.91
rtibia 72.7066
rfoot 148.86 146.85
rtoes 25.5584
lfemur -19.4201 -7.63704 -32.5418
ltibia 34.2127
lfoot -42.0003 18.7943
ltoes -30.5577
850
root -2.51014 14.3285 -33.5364 -314.42 42.8493 25.3914
lowerback -18.6029 -10.441 -3.44646
upperback -13.6346 -12.8661 -0.302247
thorax -3.96114 -6.17491 -0.394169
lowerneck -7.98668 -1.33619 -3.55365
upperneck 43.8065 -2.27773 3.79971
head 17.6155 -0.81059 2.11369
rclavicle -3.97569e-016 -7.15625e-015
rhumerus -23.7575 -45.5689 10.2299
rradius 17.2614
rwrist 23.0155
rhand -2.03435 5.20101
rfingers 7.12502
rthumb 23.6404 -23.3655
lclavicle -3.97569e-016 -7.15625e-015
lhumerus 58.1004 16.5834 40.7489
lradius 23.2278
lwrist -37.0586
lhand -0.620767 20.5075
lfingers 7.12502
lthumb 24.9957 48.8923
rfemur -109.779 -39.5019 410.882
rtibia 72.5704
rfoot 148.805 147.022
rtoes 25.6066
lfemur -18.6897 -7.62988 -32.4621
ltibia 34.0894
lfoot -41.9368 18.677
ltoes -29.6459
851
root -2.51265 14.3424 -33.584 -314.534 42.9553 25.276
lowerback -18.7988 -10.3369 -3.5701
upperback -13.8961 -12.6848 -0.488646
thorax -4.18358 -6.06998 -0.495693
lowerneck -6.49304 -1.34845 -3.23169
upperneck 43.2446 -2.39974 3.82686
head 16.8982 -0.807428 2.02646
rclavicle 1.64991e-013 4.69132e-014
rhumerus -25.5722 -44.9406 11.8459
rradius 17.1565
rwrist 24.0437
rhand -1.63729 5.32529
rfingers 7.12502
rthumb 24.0212 -23.1916
lclavicle 1.64991e-013 4.69132e-014
lhumerus 58.8275 15.3244 41.8143
lradius 23.1377
lwrist -37.4411
lhand -0.799979 20.7727
lfingers 7.12502
lthumb 24.8239 49.1813
rfemur -109.837 -39.5693 411.127
rtibia 72.4607
rfoot 148.386 147.59
rtoes 26.8866
lfemur -18.6834 -8.39521 -32.4627
ltibia 33.9275
lfoot -42.0693 19.0765
ltoes -28.6121
852
root -2.52368 14.3667 -33.6013 -315.171 42.8533 24.9824
lowerback -19.1178 -10.4745 -3.95856
upperback -13.403 -12.7805 -0.352413
thorax -3.35582 -6.1035 -0.292441
lowerneck -6.86538 -1.09818 -3.39842
upperneck 42.6826 -2.02869 3.98759
head 16.6513 -0.663146 2.16552
rclavicle -8.29926e-014 -2.14687e-014
rhumerus -26.8128 -47.6347 13.2427
rradius 16.762
rwrist 26.7313
rhand -1.28005 5.69235
rfingers 7.12502
rthumb 24.3638 -22.7789
lclavicle -8.29926e-014 -2.14687e-014
lhumerus 59.7562 15.5115 42.6125
lradius 23.0893
lwrist -37.6192
lhand -1.01444 21.1409
lfingers 7.12502
lthumb 24.6184 49.5777
rfemur -108.801 -39.5741 410.429
rtibia 72.5661
rfoot 146.261 149.224
rtoes 30.4619
lfemur -18.1603 -8.73562 -32.4612
ltibia 33.7374
lfoot -42.4658 19.1529
ltoes -27.1616
853
root -2.53528 14.3842 -33.5986 -316.06 42.8832 24.6131
lowerback -18.5776 -10.5451 -3.87086
upperback -13.5041 -12.9358 -0.430809
thorax -3.77199 -6.18667 -0.336732
lowerneck -6.75604 -0.787283 -3.44161
upperneck 42.5855 -1.65934 4.27421
head 16.5483 -0.482278 2.3533
rclavicle -1.55052e-014 -4.92986e-014
rhumerus -27.621 -48.4541 13.881
rradius 16.4842
rwrist 28.5787
rhand -1.46965 5.40202
rfingers 7.12502
rthumb 24.182 -23.0935
lclavicle -1.55052e-014 -4.92986e-014
lhumerus 59.5904 14.5834 42.0332
lradius 23.2621
lwrist -37.063
lhand -1.32308 21.9741
lfingers 7.12502
lthumb 24.3225 50.4509
rfemur -107.467 -39.6343 409.741
rtibia 72.5324
rfoot 145.722 149.337
rtoes 30.7604
lfemur -17.3827 -8.9054 -32.2869
ltibia 33.5797
lfoot -42.803 19.2698
ltoes -26.2374
854
root -2.53976 14.3907 -33.6237 -316.399 42.7877 24.1631
lowerback -18.5769 -10.5402 -3.62812
upperback -13.8297 -12.9645 -0.376565
thorax -4.17666 -6.20604 -0.368173
lowerneck -6.23003 -0.461379 -3.52214
upperneck 42.2459 -1.21762 4.45184
head 16.2006 -0.289469 2.49411
rclavicle 1.25334e-013 2.62396e-014
rhumerus -28.4631 -49.3864 14.8793
rradius 16.2324
rwrist 30.7182
rhand -1.6761 5.16267
rfingers 7.12502
rthumb 23.984 -23.3591
lclavicle 1.25334e-013 2.62396e-014
lhumerus 59.2633 13.418 41.2281
lradius 23.4707
lwrist -36.1209
lhand -1.52552 22.816
lfingers 7.12502
lthumb 24.1284 51.3186
rfemur -106.898 -39.2154 409.393
rtibia 72.4042
rfoot 145.377 149.468
rtoes 31.6394
lfemur -17.3931 -9.35308 -32.1647
ltibia 33.4903
lfoot -43.0196 19.8669
ltoes -25.7445
855
root -2.53777 14.4113 -33.6477 -316.876 42.7585 23.7073
lowerback -18.4977 -10.3474 -3.35103
upperback -14.273 -12.7534 -0.6127
thorax -4.83858 -6.1123 -0.646271
lowerneck -4.58283 -0.297328 -3.16199
upperneck 41.5229 -1.11282 4.58249
head 15.4058 -0.174832 2.45622
rclavicle -5.27773e-014 1.90833e-014
rhumerus -30.4285 -49.9778 17.0057
rradius 16.0293
rwrist 33.2308
rhand -1.55737 5.47321
rfingers 7.12502
rthumb 24.0979 -23.0335
lclavicle -5.27773e-014 1.90833e-014
lhumerus 59.1911 11.5329 40.7235
lradius 23.664
lwrist -35.2443
lhand -1.5025 23.1888
lfingers 7.12502
lthumb 24.1505 51.6885
rfemur -106.577 -39.0477 409.321
rtibia 72.2077
rfoot 146.506 148.459
rtoes 29.6965
lfemur -17.2635 -9.5812 -32.0275
ltibia 33.4879
lfoot -43.1939 20.3218
ltoes -25.6315
856
root -2.54011 14.4154 -33.653 -317.81 42.9533 22.9827
lowerback -18.4274 -10.4123 -3.2175
upperback -14.1005 -12.8615 -0.361524
thorax -4.63932 -6.17094 -0.482163
lowerneck -4.72365 -0.0302678 -3.21365
upperneck 40.8317 -0.725309 4.66306
head 15.0549 -0.00984987 2.52292
rclavicle 8.54774e-015 -1.35174e-014
rhumerus -31.1257 -50.8676 17.9028
rradius 15.8748
rwrist 34.3848
rhand -1.7416 5.38638
rfingers 7.12502
rthumb 23.9212 -23.1436
lclavicle 8.54774e-015 -1.35174e-014
lhumerus 59.9468 11.6725 42.0511
lradius 23.5164
lwrist -35.646
lhand -1.1572 22.5716
lfingers 7.12502
lthumb 24.4815 51.027
rfemur -105.368 -39.0373 409.196
rtibia 72.0486
rfoot 145.462 149.371
rtoes 31.4717
lfemur -16.8392 -9.29746 -31.5422
ltibia 33.6181
lfoot -43.3838 20.4529
ltoes -25.8421
